<svg xmlns="http://www.w3.org/2000/svg" width="78.052" height="75.959" viewBox="0 0 78.052 75.959">
  <g id="Group_3857" data-name="Group 3857" transform="translate(-1028.711 -376.053)">
    <g id="Group_3710" data-name="Group 3710" transform="translate(1031.211 376.053)">
      <g id="Group_4" data-name="Group 4" transform="translate(0 0)">
        <path id="Path_14992" data-name="Path 14992" d="M31.131,0l2.614,35.079H25.9L41.588,51.45l15.686-16.37H49.431L52.046,0Z" transform="translate(-5.742 0)" fill="#00408a"/>
        <path id="Path_14993" data-name="Path 14993" d="M38.509,71.816a14.49,14.49,0,0,0,14.4-12.8H70.13a4.925,4.925,0,0,1,4.922,4.922V77.775A4.925,4.925,0,0,1,70.13,82.7H6.922A4.925,4.925,0,0,1,2,77.775V63.922A4.925,4.925,0,0,1,6.922,59H24.1A14.514,14.514,0,0,0,38.509,71.816Z" transform="translate(-2 -9.237)" fill="none" stroke="#03963b" stroke-width="5"/>
      </g>
    </g>
  </g>
</svg>
