<svg xmlns="http://www.w3.org/2000/svg" width="22.697" height="16.435" viewBox="0 0 22.697 16.435">
  <g id="Password_icon_2" data-name="Password icon 2" transform="translate(0 0.773) rotate(-2)">
    <path id="Path_2" data-name="Path 2" d="M259.355,402l1.819-1.819a9.955,9.955,0,0,0-1.559-.13c-3.891,0-7.356,2.255-9.615,5.769a14.038,14.038,0,0,0,2.564,2.971l3.231-3.231A3.824,3.824,0,0,1,259.355,402Z" transform="translate(-250 -399.019)" fill="#00408a"/>
    <path id="Path_3" data-name="Path 3" d="M557.353,296l1.545-1.511-1.6-1.567-14.425,14.1,1.6,1.567,2.073-2.027a12.023,12.023,0,0,0,4.339.841c4.587,0,8.67-2.6,11.333-6.649A15.456,15.456,0,0,0,557.353,296Zm-6.468,9.191a4.523,4.523,0,0,1-2.3-.622l1.36-1.33a2.688,2.688,0,0,0,3.655-2.48,2.518,2.518,0,0,0-.184-.914l1.36-1.33a4.277,4.277,0,0,1,.637,2.244A4.484,4.484,0,0,1,550.885,305.189Z" transform="translate(-540.055 -292.92)" fill="#00408a"/>
  </g>
</svg>
