<svg id="Info_icon" data-name="Info icon" xmlns="http://www.w3.org/2000/svg" width="28.607" height="28.607" viewBox="0 0 28.607 28.607">
  <g id="Group_1" data-name="Group 1">
    <path id="Path_1" data-name="Path 1" d="M214.3,200a14.3,14.3,0,1,0,14.3,14.3A14.32,14.32,0,0,0,214.3,200Zm0,26.819A12.516,12.516,0,1,1,226.819,214.3,12.53,12.53,0,0,1,214.3,226.819Z" transform="translate(-200 -200)" fill="#00408a"/>
    <path id="Path_2" data-name="Path 2" d="M1152.359,590.306a1.758,1.758,0,0,0,1.742-1.771,1.739,1.739,0,0,0-1.713-1.8,1.785,1.785,0,0,0-.029,3.57Z" transform="translate(-1138.256 -581.707)" fill="#00408a"/>
    <path id="Path_3" data-name="Path 3" d="M1065.006,1001.4c-1.567-.145-1.567-.145-1.562-1.767v-9.364a.224.224,0,0,0-.081-.172.222.222,0,0,0-.184-.048c-1.532.286-2.406.392-4.036.565a.224.224,0,0,0-.2.222v1.045a.224.224,0,0,0,.191.221c1.542.224,1.542.224,1.541,1.8v5.733c0,1.616,0,1.616-1.534,1.761a.224.224,0,0,0-.2.223v1.057a.223.223,0,0,0,.224.224h5.822a.223.223,0,0,0,.223-.224v-1.057A.223.223,0,0,0,1065.006,1001.4Z" transform="translate(-1047.771 -979.769)" fill="#00408a"/>
  </g>
</svg>
