<svg xmlns="http://www.w3.org/2000/svg" width="76.038" height="73.459" viewBox="0 0 76.038 73.459">
  <g id="Group_3713" data-name="Group 3713" transform="translate(0)">
    <g id="Group_3" data-name="Group 3" transform="translate(0)">
      <path id="Path_14998" data-name="Path 14998" d="M38.5,49.667v12.9H51.4V57.4H43.659V49.667Z" transform="translate(-12.707 -9.738)" fill="#03963b"/>
      <path id="Path_14999" data-name="Path 14999" d="M56.176,47.8A23.235,23.235,0,0,0,39.468,34.1a23.445,23.445,0,0,0-9.353,0,23.2,23.2,0,0,0-18.54,22.741l0,.064H6.417l7.738,10.253L21.892,56.9H16.736l0-.064a17.944,17.944,0,0,1,3.082-10.093,18.058,18.058,0,0,1,32.661,6.446,18.357,18.357,0,0,1,0,7.284A18.082,18.082,0,0,1,47.556,69.6a18.2,18.2,0,0,1-5.739,3.872,18.01,18.01,0,0,1-3.387,1.052,18.359,18.359,0,0,1-7.281,0A17.946,17.946,0,0,1,24.7,71.811a18.227,18.227,0,0,1-2.675-2.205l-3.647,3.647a23.217,23.217,0,0,0,37.8-25.45Z" transform="translate(-6.417 -6.593)" fill="#03963b"/>
      <path id="Path_15000" data-name="Path 15000" d="M85.157,70.746,81.941,22.51h9.647L72.294,0,53,22.51h9.647L59.431,70.746Z" transform="translate(-15.55)" fill="#00408a"/>
    </g>
  </g>
</svg>
